<svg width="10" height="10" viewBox="0 0 10 10" fill="none" xmlns="http://www.w3.org/2000/svg">
<path fill-rule="evenodd" clip-rule="evenodd" d="M0.500012 0.500018C0.223012 0.500018 1.16379e-05 0.723018 1.16379e-05 1.00002V3.75002C-0.00276718 4.56714 0.492303 5.30361 1.25001 5.60952V8.75002C1.25001 9.16552 1.58451 9.50002 2.00001 9.50002C2.41551 9.50002 2.75001 9.16552 2.75001 8.75002V5.60952C3.50772 5.30361 4.00279 4.56714 4.00001 3.75002V1.00002C4.00001 0.723018 3.77701 0.500018 3.50001 0.500018C3.22301 0.500018 3.00001 0.723018 3.00001 1.00002V3.00002C3.00001 3.13809 2.88808 3.25002 2.75001 3.25002C2.61194 3.25002 2.50001 3.13809 2.50001 3.00002V1.00002C2.50001 0.723018 2.27701 0.500018 2.00001 0.500018C1.72301 0.500018 1.50001 0.723018 1.50001 1.00002V3.00002C1.50001 3.13809 1.38808 3.25002 1.25001 3.25002C1.11194 3.25002 1.00001 3.13809 1.00001 3.00002V1.00002C1.00001 0.723018 0.777012 0.500018 0.500012 0.500018ZM8.93751 0.50002C8.87055 0.513631 8.80687 0.540122 8.75001 0.57802L7.00001 1.62502V3.50002H5.00001V4.50002H5.50001L6.00001 9.50002H9.00001L9.50001 4.50002H10V3.50002H8.00001V2.17202L9.25001 1.42202C9.36361 1.35726 9.44606 1.24917 9.47848 1.12249C9.51091 0.995808 9.49053 0.861394 9.42201 0.75002C9.31551 0.57152 9.13051 0.47302 8.93751 0.50002Z" fill="#545759"/>
</svg>
