<svg width="10" height="10" viewBox="0 0 10 10" fill="none" xmlns="http://www.w3.org/2000/svg">
    <path 
        d="M9.02025 6.81932L7.60628 6.65788C7.26671 6.61891 6.9327 6.73582 6.69333 6.97519L5.66904 7.99948C4.09364 7.19786 2.80214 5.91193 2.00052 4.33096L3.03038 3.30111C3.26975 3.06173 3.38665 2.72773 3.34769 2.38815L3.18625 0.985322C3.11945 0.423076 2.64627 0 2.07846 0H1.1154C0.486356 0 -0.0369226 0.523278 0.00204495 1.15233C0.297085 5.90636 4.0992 9.70291 8.84768 9.99795C9.47672 10.0369 10 9.51364 10 8.8846V7.92154C10.0056 7.3593 9.58249 6.88612 9.02025 6.81932Z" 
        fill="black" 
        fill-opacity="0.54"
    />
</svg>
